<svg width="922" height="2325" viewBox="0 0 922 2325" fill="none" xmlns="http://www.w3.org/2000/svg" xmlns:xlink="http://www.w3.org/1999/xlink">
<mask id="mask0_17_18" style="mask-type:alpha" maskUnits="userSpaceOnUse" x="0" y="0" width="922" height="2325">
<path d="M593.915 14.1425L611.072 0.53479L680.886 14.1425L631.78 30.1168H593.915L557.233 53.7824L545.4 67.3901L585.04 78.6313L638.879 137.795L654.262 202.284L638.879 250.798L593.915 267.364L564.333 299.313V316.47L530.609 328.895L511.677 345.461L505.76 378.593V427.107L545.4 451.364L638.879 493.962L690.944 530.644L724.076 589.216L735.317 644.831L715.201 679.737L684.436 703.995V721.744L658.404 773.216L564.333 819.956L486.236 870.837L451.921 926.451L446.005 982.065L477.362 993.307L539.484 1003.36L596.281 1022.89L579.715 1037.68L633.555 1066.67L642.429 1182.04L651.304 1832.84L654.854 1876.62L665.503 1884.91L651.304 1925.14V1986.67L680.886 1970.7L665.503 2005.6L680.886 2026.9H706.918L715.793 2045.83V2079.56L691.535 2105.59L680.886 2129.85L729.992 2142.27H824.063L904.526 2116.24L920.5 2129.85L885.593 2162.98H841.812V2186.05L861.336 2197.89L824.063 2215.63H794.481L757.799 2239.89L771.998 2252.32L745.375 2262.97L598.648 2296.1L618.172 2310.3L565.516 2323.9L360.809 2310.3L341.876 2296.1L292.77 2310.3L131.844 2262.97L153.143 2239.89L86.2878 2226.28L35.4068 2186.05L0.5 2173.63V2142.27H35.4068L153.143 2152.92L194.558 2105.59L254.314 2079.56L266.738 2026.9L292.77 2005.6L266.738 1941.11L325.902 1970.7L341.876 1066.67L263.188 1022.89L240.114 967.274L252.539 916.393L298.095 870.837L360.809 819.956L451.921 779.724L505.76 731.21V596.316L496.886 523.544L437.13 505.795L351.934 437.165L341.876 378.593L375.6 328.895L451.921 299.313L505.76 267.364L521.735 178.027L496.886 106.438L451.921 53.7824L496.886 30.1168L593.915 14.1425Z" fill="#FF0000" stroke="black"/>
</mask>
<g mask="url(#mask0_17_18)">
<rect x="-116.053" y="-363.915" width="1133.77" height="2896.18" fill="url(#pattern0_17_18)"/>
</g>
<defs>
<pattern id="pattern0_17_18" patternContentUnits="objectBoundingBox" width="1" height="1">
<use xlink:href="#image0_17_18" transform="matrix(0.00123762 0 0 0.000484437 -1.06931 -0.145995)"/>
</pattern>
<image id="image0_17_18" width="4096" height="2731" preserveAspectRatio="none" xlink:href="/assets/amy-huang/waterfall-texture.webp"/>
</defs>
</svg>
