<svg xmlns="http://www.w3.org/2000/svg" width="1440" height="560" preserveAspectRatio="none" viewBox="0 0 1440 560">
    <g mask="url(#SvgjsMask1845)" fill="none">
        <rect width="1440" height="560" x="0" y="0" fill="url(#SvgjsLinearGradient1846)"></rect>
        <use href="#SvgjsSymbol1853" x="0" y="0"></use>
        <use href="#SvgjsSymbol1853" x="720" y="0"></use>
    </g>
    <defs>
        <mask id="SvgjsMask1845">
            <rect width="1440" height="560" fill="#ffffff"></rect>
        </mask>
        <linearGradient x1="15.28%" y1="-39.29%" x2="84.72%" y2="139.29%" gradientUnits="userSpaceOnUse" id="SvgjsLinearGradient1846">
            <stop stop-color="#0e2a47" offset="0"></stop>
            <stop stop-color="rgba(148, 167, 193, 1)" offset="1"></stop>
        </linearGradient>
        <path d="M-1 0 a1 1 0 1 0 2 0 a1 1 0 1 0 -2 0z" id="SvgjsPath1848"></path>
        <path d="M-3 0 a3 3 0 1 0 6 0 a3 3 0 1 0 -6 0z" id="SvgjsPath1849"></path>
        <path d="M-5 0 a5 5 0 1 0 10 0 a5 5 0 1 0 -10 0z" id="SvgjsPath1850"></path>
        <path d="M2 -2 L-2 2z" id="SvgjsPath1847"></path>
        <path d="M6 -6 L-6 6z" id="SvgjsPath1851"></path>
        <path d="M30 -30 L-30 30z" id="SvgjsPath1852"></path>
    </defs>
    <symbol id="SvgjsSymbol1853">
        <use href="#SvgjsPath1847" x="30" y="30" stroke="#1c538e"></use>
        <use href="#SvgjsPath1848" x="30" y="90" stroke="#1c538e"></use>
        <use href="#SvgjsPath1848" x="30" y="150" stroke="#1c538e"></use>
        <use href="#SvgjsPath1849" x="30" y="210" stroke="#1c538e"></use>
        <use href="#SvgjsPath1849" x="30" y="270" stroke="#1c538e"></use>
        <use href="#SvgjsPath1850" x="30" y="330" stroke="#1c538e"></use>
        <use href="#SvgjsPath1847" x="30" y="390" stroke="#1c538e"></use>
        <use href="#SvgjsPath1851" x="30" y="450" stroke="#1c538e"></use>
        <use href="#SvgjsPath1850" x="30" y="510" stroke="#1c538e"></use>
        <use href="#SvgjsPath1850" x="30" y="570" stroke="#1c538e"></use>
        <use href="#SvgjsPath1850" x="90" y="30" stroke="#1c538e"></use>
        <use href="#SvgjsPath1851" x="90" y="90" stroke="#1c538e"></use>
        <use href="#SvgjsPath1847" x="90" y="150" stroke="#1c538e"></use>
        <use href="#SvgjsPath1851" x="90" y="210" stroke="#1c538e"></use>
        <use href="#SvgjsPath1850" x="90" y="270" stroke="#1c538e"></use>
        <use href="#SvgjsPath1851" x="90" y="330" stroke="#1c538e"></use>
        <use href="#SvgjsPath1850" x="90" y="390" stroke="#1c538e"></use>
        <use href="#SvgjsPath1849" x="90" y="450" stroke="#1c538e"></use>
        <use href="#SvgjsPath1847" x="90" y="510" stroke="#1c538e"></use>
        <use href="#SvgjsPath1850" x="90" y="570" stroke="#1c538e"></use>
        <use href="#SvgjsPath1850" x="150" y="30" stroke="#1c538e"></use>
        <use href="#SvgjsPath1850" x="150" y="90" stroke="#1c538e"></use>
        <use href="#SvgjsPath1851" x="150" y="150" stroke="#1c538e"></use>
        <use href="#SvgjsPath1851" x="150" y="210" stroke="#1c538e"></use>
        <use href="#SvgjsPath1850" x="150" y="270" stroke="#1c538e"></use>
        <use href="#SvgjsPath1850" x="150" y="330" stroke="#1c538e"></use>
        <use href="#SvgjsPath1851" x="150" y="390" stroke="#1c538e"></use>
        <use href="#SvgjsPath1851" x="150" y="450" stroke="#1c538e"></use>
        <use href="#SvgjsPath1850" x="150" y="510" stroke="#1c538e"></use>
        <use href="#SvgjsPath1851" x="150" y="570" stroke="#1c538e"></use>
        <use href="#SvgjsPath1847" x="210" y="30" stroke="#1c538e"></use>
        <use href="#SvgjsPath1849" x="210" y="90" stroke="#1c538e"></use>
        <use href="#SvgjsPath1850" x="210" y="150" stroke="#1c538e"></use>
        <use href="#SvgjsPath1850" x="210" y="210" stroke="#1c538e"></use>
        <use href="#SvgjsPath1850" x="210" y="270" stroke="#1c538e"></use>
        <use href="#SvgjsPath1852" x="210" y="330" stroke="#1c538e" stroke-width="3"></use>
        <use href="#SvgjsPath1850" x="210" y="390" stroke="#1c538e"></use>
        <use href="#SvgjsPath1851" x="210" y="450" stroke="#1c538e"></use>
        <use href="#SvgjsPath1848" x="210" y="510" stroke="#1c538e"></use>
        <use href="#SvgjsPath1851" x="210" y="570" stroke="#1c538e"></use>
        <use href="#SvgjsPath1850" x="270" y="30" stroke="#1c538e"></use>
        <use href="#SvgjsPath1851" x="270" y="90" stroke="#1c538e"></use>
        <use href="#SvgjsPath1851" x="270" y="150" stroke="#1c538e"></use>
        <use href="#SvgjsPath1850" x="270" y="210" stroke="#1c538e"></use>
        <use href="#SvgjsPath1850" x="270" y="270" stroke="#1c538e"></use>
        <use href="#SvgjsPath1851" x="270" y="330" stroke="#1c538e"></use>
        <use href="#SvgjsPath1851" x="270" y="390" stroke="#1c538e"></use>
        <use href="#SvgjsPath1850" x="270" y="450" stroke="#1c538e"></use>
        <use href="#SvgjsPath1851" x="270" y="510" stroke="#1c538e"></use>
        <use href="#SvgjsPath1851" x="270" y="570" stroke="#1c538e"></use>
        <use href="#SvgjsPath1850" x="330" y="30" stroke="#1c538e"></use>
        <use href="#SvgjsPath1850" x="330" y="90" stroke="#1c538e"></use>
        <use href="#SvgjsPath1847" x="330" y="150" stroke="#1c538e"></use>
        <use href="#SvgjsPath1851" x="330" y="210" stroke="#1c538e"></use>
        <use href="#SvgjsPath1849" x="330" y="270" stroke="#1c538e"></use>
        <use href="#SvgjsPath1847" x="330" y="330" stroke="#1c538e"></use>
        <use href="#SvgjsPath1850" x="330" y="390" stroke="#1c538e"></use>
        <use href="#SvgjsPath1847" x="330" y="450" stroke="#1c538e"></use>
        <use href="#SvgjsPath1850" x="330" y="510" stroke="#1c538e"></use>
        <use href="#SvgjsPath1851" x="330" y="570" stroke="#1c538e"></use>
        <use href="#SvgjsPath1848" x="390" y="30" stroke="#1c538e"></use>
        <use href="#SvgjsPath1848" x="390" y="90" stroke="#1c538e"></use>
        <use href="#SvgjsPath1851" x="390" y="150" stroke="#1c538e"></use>
        <use href="#SvgjsPath1850" x="390" y="210" stroke="#1c538e"></use>
        <use href="#SvgjsPath1849" x="390" y="270" stroke="#1c538e"></use>
        <use href="#SvgjsPath1852" x="390" y="330" stroke="#1c538e" stroke-width="3"></use>
        <use href="#SvgjsPath1850" x="390" y="390" stroke="#1c538e"></use>
        <use href="#SvgjsPath1849" x="390" y="450" stroke="#1c538e"></use>
        <use href="#SvgjsPath1850" x="390" y="510" stroke="#1c538e"></use>
        <use href="#SvgjsPath1848" x="390" y="570" stroke="#1c538e"></use>
        <use href="#SvgjsPath1848" x="450" y="30" stroke="#1c538e"></use>
        <use href="#SvgjsPath1848" x="450" y="90" stroke="#1c538e"></use>
        <use href="#SvgjsPath1851" x="450" y="150" stroke="#1c538e"></use>
        <use href="#SvgjsPath1851" x="450" y="210" stroke="#1c538e"></use>
        <use href="#SvgjsPath1850" x="450" y="270" stroke="#1c538e"></use>
        <use href="#SvgjsPath1851" x="450" y="330" stroke="#1c538e"></use>
        <use href="#SvgjsPath1848" x="450" y="390" stroke="#1c538e"></use>
        <use href="#SvgjsPath1847" x="450" y="450" stroke="#1c538e"></use>
        <use href="#SvgjsPath1847" x="450" y="510" stroke="#1c538e"></use>
        <use href="#SvgjsPath1851" x="450" y="570" stroke="#1c538e"></use>
        <use href="#SvgjsPath1847" x="510" y="30" stroke="#1c538e"></use>
        <use href="#SvgjsPath1852" x="510" y="90" stroke="#1c538e" stroke-width="3"></use>
        <use href="#SvgjsPath1849" x="510" y="150" stroke="#1c538e"></use>
        <use href="#SvgjsPath1851" x="510" y="210" stroke="#1c538e"></use>
        <use href="#SvgjsPath1849" x="510" y="270" stroke="#1c538e"></use>
        <use href="#SvgjsPath1849" x="510" y="330" stroke="#1c538e"></use>
        <use href="#SvgjsPath1848" x="510" y="390" stroke="#1c538e"></use>
        <use href="#SvgjsPath1849" x="510" y="450" stroke="#1c538e"></use>
        <use href="#SvgjsPath1848" x="510" y="510" stroke="#1c538e"></use>
        <use href="#SvgjsPath1851" x="510" y="570" stroke="#1c538e"></use>
        <use href="#SvgjsPath1851" x="570" y="30" stroke="#1c538e"></use>
        <use href="#SvgjsPath1851" x="570" y="90" stroke="#1c538e"></use>
        <use href="#SvgjsPath1849" x="570" y="150" stroke="#1c538e"></use>
        <use href="#SvgjsPath1850" x="570" y="210" stroke="#1c538e"></use>
        <use href="#SvgjsPath1852" x="570" y="270" stroke="#1c538e" stroke-width="3"></use>
        <use href="#SvgjsPath1848" x="570" y="330" stroke="#1c538e"></use>
        <use href="#SvgjsPath1851" x="570" y="390" stroke="#1c538e"></use>
        <use href="#SvgjsPath1851" x="570" y="450" stroke="#1c538e"></use>
        <use href="#SvgjsPath1850" x="570" y="510" stroke="#1c538e"></use>
        <use href="#SvgjsPath1851" x="570" y="570" stroke="#1c538e"></use>
        <use href="#SvgjsPath1848" x="630" y="30" stroke="#1c538e"></use>
        <use href="#SvgjsPath1847" x="630" y="90" stroke="#1c538e"></use>
        <use href="#SvgjsPath1850" x="630" y="150" stroke="#1c538e"></use>
        <use href="#SvgjsPath1847" x="630" y="210" stroke="#1c538e"></use>
        <use href="#SvgjsPath1851" x="630" y="270" stroke="#1c538e"></use>
        <use href="#SvgjsPath1850" x="630" y="330" stroke="#1c538e"></use>
        <use href="#SvgjsPath1847" x="630" y="390" stroke="#1c538e"></use>
        <use href="#SvgjsPath1850" x="630" y="450" stroke="#1c538e"></use>
        <use href="#SvgjsPath1848" x="630" y="510" stroke="#1c538e"></use>
        <use href="#SvgjsPath1851" x="630" y="570" stroke="#1c538e"></use>
        <use href="#SvgjsPath1850" x="690" y="30" stroke="#1c538e"></use>
        <use href="#SvgjsPath1847" x="690" y="90" stroke="#1c538e"></use>
        <use href="#SvgjsPath1850" x="690" y="150" stroke="#1c538e"></use>
        <use href="#SvgjsPath1850" x="690" y="210" stroke="#1c538e"></use>
        <use href="#SvgjsPath1847" x="690" y="270" stroke="#1c538e"></use>
        <use href="#SvgjsPath1847" x="690" y="330" stroke="#1c538e"></use>
        <use href="#SvgjsPath1850" x="690" y="390" stroke="#1c538e"></use>
        <use href="#SvgjsPath1850" x="690" y="450" stroke="#1c538e"></use>
        <use href="#SvgjsPath1851" x="690" y="510" stroke="#1c538e"></use>
        <use href="#SvgjsPath1847" x="690" y="570" stroke="#1c538e"></use>
    </symbol>
</svg>
